<svg width="20" height="18" viewBox="0 0 20 18" fill="none" xmlns="http://www.w3.org/2000/svg">
<path d="M1.99994 16V5.09995L0.449944 1.74995C0.333277 1.49995 0.324944 1.24562 0.424944 0.986955C0.524944 0.728288 0.699944 0.540955 0.949944 0.424955C1.19994 0.308955 1.45428 0.296621 1.71294 0.387955C1.97161 0.479288 2.15894 0.649955 2.27494 0.899955L4.19994 5.04995H15.7999L17.7249 0.899955C17.8416 0.649955 18.0293 0.474955 18.2879 0.374955C18.5466 0.274955 18.8006 0.291621 19.0499 0.424955C19.2999 0.541621 19.4749 0.729288 19.5749 0.987955C19.6749 1.24662 19.6666 1.50062 19.5499 1.74995L17.9999 5.09995V16C17.9999 16.55 17.8043 17.021 17.4129 17.413C17.0216 17.805 16.5506 18.0006 15.9999 18H3.99994C3.44994 18 2.97928 17.8043 2.58794 17.413C2.19661 17.0216 2.00061 16.5506 1.99994 16ZM7.99994 11H11.9999C12.2833 11 12.5209 10.904 12.7129 10.712C12.9049 10.52 13.0006 10.2826 12.9999 9.99995C12.9993 9.71729 12.9033 9.47995 12.7119 9.28795C12.5206 9.09595 12.2833 8.99995 11.9999 8.99995H7.99994C7.71661 8.99995 7.47928 9.09595 7.28794 9.28795C7.09661 9.47995 7.00061 9.71729 6.99994 9.99995C6.99928 10.2826 7.09528 10.5203 7.28794 10.713C7.48061 10.9056 7.71794 11.0013 7.99994 11Z" fill="#EA7C69"/>
</svg>
